<svg xmlns="http://www.w3.org/2000/svg" viewBox="0 0 1000 1000" width="1000" height="1000">
  <title>Akeeba Extract</title>
  <path fill="#000000" fill-rule="evenodd" d="M714.5 40C710 40.5 705.8 41.1 705.3 41.4C704.7 41.8 698.5 42.8 691.5 43.6C684.4 44.5 678.4 45.4 678 45.6C677.7 45.8 672.7 46.5 667 47.1C656 48.2 643 51.9 614.9 62C606 65.1 592.4 73.2 585.3 79.5C580.1 84.2 571.9 95.4 571.9 98C571.9 100.5 578.9 106.4 587.5 111.1C605.6 121.2 604.1 120.7 617.9 120.7C638.9 120.7 705.1 118.3 713.1 117.2C728.2 115.3 746.3 116.1 770.8 119.8C774.4 120.3 784.4 126.7 789 131.4C793.8 136.3 798.2 147.8 799.3 158.6C800.5 170.3 802.2 592.3 801.1 596.2C798.8 604.3 794.7 606.3 779.1 607.2C772.8 607.6 755.5 609.2 740.6 610.9C725.8 612.5 705.4 614.3 695.5 614.8C685.6 615.4 676.5 616 675.3 616.3C670.1 617.5 666.4 614.5 663.5 606.7C653 579 628.4 565.7 600.6 572.8C585.5 576.6 574.6 585.5 567.6 599.6C563.4 608.1 563.4 608.1 563.1 665.6C562.8 730 562.4 726.6 570 729.1C578.3 731.9 577.8 727.7 577.9 795.5C578 853.3 577.9 855.9 575.9 862.6C574.3 868.2 573.9 872.6 573.8 884.6C573.6 910.8 575 909.7 539.3 911.1C524.5 911.6 504.2 912.1 494.3 912.1C478.8 912.1 475.8 912.4 472.9 913.9C463.4 919.1 463.3 935.6 472.8 942C476.3 944.4 476.3 944.4 521.8 943.8C567.2 943.1 567.5 943.1 570.2 945.2C571.8 946.5 573.1 948.7 573.5 951C575.2 960.3 575.7 960.4 615 960C651.4 959.7 650.3 959.9 651.5 951.1C652.3 945.3 654.9 941.7 659.3 940.3C661 939.8 683 938.8 708 938.2C733.1 937.6 755.3 936.6 757.3 936.1C764.1 934.3 769.2 925.8 767.2 919.4C765.2 912.6 760.5 906.3 756.9 905.4C753.4 904.5 724.3 905.2 685.3 907C650.4 908.7 651.8 909.8 651 881.6C650.4 862.8 650.4 862.5 647.2 855.6C643.9 848.6 643.9 848.6 644.2 791.8C644.5 726.1 643.6 730.9 655.9 729C664.3 727.7 665.3 726.5 665.8 718.2C666.5 707.6 668.6 705.8 681.5 704.5C690.3 703.6 728 695.4 743.6 691C747.5 689.9 754.4 688.1 759.1 687C772.7 683.7 785.8 679.9 802.7 674.1C810.5 671.4 815.7 669.7 827.2 665.7C832.4 664 840.5 661.1 845.2 659.3C849.9 657.5 854.7 655.7 856 655.3C862.1 653.5 879.3 632.6 881.8 623.8C882.2 622.4 884.1 617.8 885.9 613.6C887.8 609.3 890 602.6 890.8 598.6C891.6 594.6 893.3 588.3 894.7 584.5C896.1 580.7 898 573.9 898.8 569.2C899.6 564.6 901.6 554.5 903.2 547C904.8 539.4 906.6 528.9 907.2 523.7C908.3 513.2 910.5 497.3 912.8 482.1C913.6 476.6 914.3 468.3 914.3 463.6C914.3 458.9 915 444.1 915.8 430.6C917.5 402.1 917.7 367.2 916.3 350C915.7 343.4 914.8 329.6 914.3 319.4C913.7 309.2 912.9 299.1 912.3 296.9C910.4 289.2 907.2 262.7 906.3 247C905.8 238.3 904.5 226.6 903.4 221C900.4 205.3 899.2 197.5 898.3 188.3C897.8 183.6 896.3 175.7 894.8 170.8C893.4 165.8 891.5 157.3 890.7 151.8C889.8 146.1 888.2 140 886.9 137.3C885.6 134.8 883.9 130.4 883 127.7C881.3 121.9 874.9 109.1 868.1 97.7C859.9 83.9 844.6 68.9 832.1 62.3C829.1 60.7 824.9 58.5 822.7 57.3C811.6 51.5 802.3 47.8 796.8 47.1C784.3 45.5 772.5 43.2 768.1 41.6C762.9 39.7 728.3 38.7 714.5 40ZM435.7 159.9C434.9 160.2 432.9 161.5 431.2 162.8C429.6 164 425.5 166.4 422.2 168C418.9 169.6 413.3 172.7 409.7 174.8C406.1 176.9 400.3 180.2 396.7 182.2C374.9 194.5 373.8 196.5 382.8 208.5C388.6 216.1 391.6 220.5 397.5 229.4C400.6 234.2 407.7 244.7 413.2 252.9C418.7 261 425.9 271.8 429.2 276.9C432.5 282 437.7 289.2 440.7 293C443.8 296.8 449.6 304.6 453.6 310.4C457.7 316.2 463.2 323.4 465.8 326.4C468.3 329.4 473.3 336 476.8 341C480.4 345.9 486 353.4 489.3 357.5C498.8 369.1 503.8 376.6 503.8 379.1C503.8 382.2 500.5 385.9 485.4 399.3C478.2 405.7 467.6 415.5 461.8 421.1C450.1 432.4 379.6 496.3 354.8 518C292.9 572.4 294 571.3 296.1 574.6C297.2 576.4 301.4 575.8 306.6 573.2C309.3 571.8 315 569.4 319.3 567.8C343.2 558.9 345.3 557.5 365.1 538.6C370.6 533.4 389.6 516.3 407.2 500.7C424.8 485.1 443.3 468.4 448.2 463.6C453.2 458.9 467.7 445.8 480.3 434.6C493 423.4 506.1 411.5 509.6 408.3C517.6 400.9 521.1 400.5 525.7 406.2C532.5 414.7 542.3 427.7 549.5 438C553.7 444 559.3 451.4 561.9 454.5C564.4 457.6 569.8 464.8 573.9 470.6C577.9 476.4 583.8 484.2 586.9 488.1C590.1 491.9 595.6 499.4 599.2 504.7C610.8 521.5 616.2 524.9 623.8 520C625.4 519 629 516.9 631.6 515.3C634.3 513.7 639.2 510.7 642.5 508.7C645.8 506.7 652.8 502.5 658.1 499.3C673.1 490.5 673 490.2 655.4 468.1C648 458.7 637.5 445.9 632.1 439.6C626.7 433.3 618.7 423.4 614.3 417.6C610 411.7 603.3 403.2 599.3 398.5C586 382.7 568.9 359.2 568.9 356.7C568.9 352.8 569.8 351.8 597.6 324.9C612.3 310.6 636.2 287.7 650.5 273.9C664.8 260.1 682.8 242.8 690.5 235.7C698.2 228.6 709.6 218.1 715.6 212.3C735.5 193.2 745.4 184.1 751.7 179.1C760.6 172.2 766.8 163.2 762.8 163.2C759.5 163.2 734.5 172.7 721.6 178.8C717.8 180.7 713.4 182.5 712 182.8C710.6 183.2 707.1 185.3 704.4 187.5C697.3 193.3 649.1 240.2 599.7 289.4C576.1 312.7 556.1 332.1 555.2 332.5C550.6 334.2 546.5 330.4 537.7 316.9C535.2 313 530.5 306.2 527.2 301.7C519.9 291.7 508.8 274.4 505.9 268.6C504.7 266.3 501.2 260.4 498 255.5C484.1 233.8 480.2 227 459.9 189.3C452.6 175.8 445.6 163.7 444.4 162.5C442 160.1 438.1 159 435.7 159.9ZM211.5 204.9C176.9 207.3 144.5 221.1 123.3 242.3C101.7 264.3 88.7 294 85.8 328.4C85.4 332.5 84.5 339.8 83.7 344.5C82.2 353.4 82.1 352.2 86.3 381.5C90.1 409 96.8 426.6 111 446.9C128.7 471.9 158.5 490.4 191.2 496.6C217.4 501.6 245.3 502.2 267.9 498.1C272.8 497.3 278.4 496.6 280.4 496.6C282.4 496.6 287.2 495.4 291.1 494C295 492.6 301.5 490.5 305.6 489.2C315 486.3 333 477.7 337.6 473.8C340.3 471.5 341 470.2 341 467.4C341 463.2 324.5 427.8 321 424.5C318.1 421.8 312.3 422.3 307.6 425.6C305.9 426.8 300.8 429.4 296.3 431.3C270.5 442.3 244.3 447.1 223.3 444.7C187.7 440.7 167.3 425.5 160.9 398.2C157.8 384.6 157.7 382.1 160.9 379C163.3 376.5 163.3 376.5 257.9 376.5C326.1 376.5 353.2 376.2 355 375.4C359.4 373.4 360 370 359.2 350.7C358.6 333.2 358.3 330.3 355.1 308.9C352.3 290.7 342 266.3 330.9 251.7C323.3 241.5 307.7 226.9 300.8 223.3C297.7 221.7 293.8 219.5 292.1 218.3C290.4 217.2 286.3 215.4 283 214.4C279.7 213.3 274.1 211.4 270.5 210C260.7 206.3 230 203.6 211.5 204.9ZM244.9 260.9C257.9 264.7 262 267 270.5 275.5C281.9 287 288.3 303 288.5 320.2C288.5 322.6 287.7 324.4 285.6 326.5C282.7 329.4 282.7 329.4 224.5 329.4C160.8 329.4 161.2 329.4 159.7 323.6C158.3 317.7 162.2 301.6 167.4 291.9C176 276 187.4 267.1 205.8 261.7C220.6 257.5 232.2 257.2 244.9 260.9Z"/>
</svg>
